<?xml version="1.0" standalone="no"?>
<!DOCTYPE svg PUBLIC "-//W3C//DTD SVG 20010904//EN"
 "http://www.w3.org/TR/2001/REC-SVG-20010904/DTD/svg10.dtd">
<svg version="1.0" xmlns="http://www.w3.org/2000/svg"
 width="300.000000pt" height="300.000000pt" viewBox="0 0 300.000000 300.000000"
 preserveAspectRatio="xMidYMid meet">
<metadata>
Created by potrace 1.11, written by Peter Selinger 2001-2013
</metadata>
<g transform="translate(0.000000,300.000000) scale(0.100000,-0.100000)"
fill="#000000" stroke="none">
<path d="M0 1500 l0 -1500 1500 0 1500 0 0 1500 0 1500 -1500 0 -1500 0 0
-1500z m2498 1199 c67 -46 102 -77 102 -89 0 -16 -571 -855 -603 -886 -9 -9
-43 10 -137 76 -69 48 -124 92 -123 98 2 6 138 204 304 441 266 379 305 431
328 431 16 0 66 -28 129 -71z m-374 -99 l-36 -50 -763 0 c-736 0 -764 -1 -786
-19 l-24 -19 0 -572 0 -572 24 -19 c22 -18 53 -19 966 -19 938 0 942 0 969 21
l26 20 0 460 0 461 53 75 52 75 3 -552 c2 -604 3 -597 -56 -637 -26 -17 -81
-18 -1022 -21 -684 -2 -1006 0 -1032 8 -20 6 -48 24 -62 41 l-26 31 0 624 c0
538 2 629 15 654 32 62 -9 59 902 60 l833 0 -36 -50z m-1294 -275 l0 -45 -65
0 c-60 0 -65 2 -65 22 0 38 38 68 87 68 l43 0 0 -45z m269 19 c12 -15 21 -35
21 -45 0 -17 -8 -19 -75 -19 l-75 0 0 -145 0 -145 -60 0 -60 0 0 190 0 190
114 0 c112 0 115 -1 135 -26z m-269 -119 l0 -35 -65 0 -65 0 0 35 0 35 65 0
65 0 0 -35z m290 0 l0 -35 -65 0 -65 0 0 35 0 35 65 0 65 0 0 -35z m-290 -90
l0 -35 -65 0 -65 0 0 35 0 35 65 0 65 0 0 -35z m290 0 l0 -35 -65 0 -65 0 0
35 0 35 65 0 65 0 0 -35z m-292 -97 l3 -48 -41 0 c-45 0 -90 34 -90 68 0 29
10 33 70 30 l55 -3 3 -47z m290 25 c5 -36 -39 -73 -88 -73 l-40 0 0 43 c0 24
3 47 7 51 4 4 32 6 63 4 48 -3 55 -6 58 -25z m710 -304 c64 -44 116 -83 115
-86 -1 -3 -52 -32 -114 -64 -91 -48 -116 -56 -132 -48 -17 10 -18 18 -13 72 3
34 9 95 12 135 4 39 9 72 11 72 2 0 57 -36 121 -81z m-368 -109 l0 -40 -380 0
-380 0 0 40 0 40 380 0 380 0 0 -40z m85 -140 l0 -35 -422 -3 -423 -2 0 40 0
40 423 -2 422 -3 0 -35z m-665 -455 c0 -24 -3 -25 -55 -25 l-55 0 0 -40 0 -40
50 0 c47 0 50 -2 50 -25 0 -23 -3 -25 -50 -25 l-50 0 0 -45 0 -45 61 0 c57 0
60 -1 57 -22 -3 -22 -7 -23 -93 -23 l-90 0 -3 158 -3 157 91 0 c89 0 90 0 90
-25z m481 -84 c25 -25 29 -37 29 -83 0 -94 -44 -138 -126 -125 l-34 6 0 -55 0
-55 -32 3 -33 3 -3 163 -2 163 45 -2 c24 -2 48 0 51 4 4 4 23 7 41 7 25 0 43
-8 64 -29z m240 0 c23 -23 29 -39 29 -70 l0 -41 -75 0 c-73 0 -75 -1 -65 -20
18 -34 53 -45 88 -27 33 16 42 13 42 -14 0 -26 -31 -39 -89 -39 -75 0 -103 28
-109 108 -4 60 -3 63 31 97 29 29 42 35 77 35 33 0 48 -6 71 -29z m259 9 c17
-17 20 -33 20 -120 l0 -100 -30 0 -30 0 0 76 c0 101 -17 131 -60 104 -11 -6
-16 -33 -20 -92 l-5 -83 -30 0 -30 0 -3 113 -3 113 45 -2 c25 -2 49 0 52 4 15
15 75 6 94 -13z m204 14 c9 -4 16 -18 16 -34 0 -27 -1 -28 -29 -17 -29 11 -61
5 -61 -12 0 -6 19 -20 43 -32 50 -26 57 -34 57 -75 0 -40 -19 -55 -74 -61 -71
-8 -96 2 -96 38 0 26 3 30 18 23 27 -12 85 -10 89 3 3 8 -14 21 -40 32 -51 22
-72 51 -63 87 10 40 89 67 140 48z m231 -17 c20 -17 28 -35 32 -70 l6 -47 -77
0 c-80 0 -89 -7 -56 -40 24 -24 41 -25 80 -5 30 15 30 15 30 -14 0 -32 -17
-41 -86 -41 -53 0 -90 29 -104 80 -11 42 -5 83 16 115 34 49 115 60 159 22z
m-1291 -24 l18 -37 21 37 c17 31 26 37 54 37 18 0 33 -2 33 -5 0 -3 -15 -29
-34 -57 l-35 -51 35 -51 c19 -28 34 -54 34 -58 0 -5 -15 -8 -33 -8 -28 0 -37
6 -53 35 -10 19 -21 35 -24 35 -3 0 -15 -16 -28 -35 -17 -27 -29 -35 -52 -35
-17 0 -30 3 -30 8 0 4 16 30 34 58 l35 52 -28 43 c-15 24 -30 50 -35 57 -5 9
3 12 32 12 34 0 40 -4 56 -37z m646 -383 c0 -49 3 -90 8 -90 4 0 20 18 36 40
24 33 36 40 63 40 18 0 33 -4 33 -9 0 -6 -18 -31 -40 -56 -22 -25 -40 -48 -40
-50 0 -2 21 -27 46 -57 l45 -53 -37 -3 c-33 -3 -41 1 -75 40 l-38 43 -1 -42
c0 -41 -1 -43 -30 -43 l-30 0 0 165 0 165 30 0 30 0 0 -90z m-702 53 c3 -21
-1 -23 -42 -23 l-46 0 0 -135 0 -135 -35 0 -36 0 2 133 1 132 -41 3 c-36 3
-41 6 -41 28 l0 25 118 -3 c113 -3 117 -4 120 -25z m1380 -31 c2 -14 11 -22
22 -22 10 0 22 -4 25 -10 4 -6 -5 -10 -19 -10 -21 0 -26 -5 -26 -25 0 -32 -27
-34 -32 -2 -2 14 -11 23 -25 25 -31 5 -29 22 2 22 20 0 25 5 25 26 0 31 23 28
28 -4z m-1318 -44 c0 -9 3 -9 12 0 7 7 25 12 40 12 23 0 28 -4 28 -25 0 -20
-5 -25 -24 -25 -39 0 -56 -35 -56 -112 l0 -68 -30 0 -30 0 0 115 0 115 30 0
c17 0 30 -5 30 -12z m277 -10 c21 -19 23 -30 23 -115 l0 -94 -37 1 c-21 0 -57
-3 -80 -6 -33 -5 -45 -2 -62 15 -44 44 -17 116 47 126 62 11 71 15 66 30 -9
23 -41 27 -73 11 -39 -21 -41 -20 -41 9 0 32 24 44 84 45 38 0 55 -5 73 -22z
m251 -16 c3 -31 2 -33 -17 -23 -71 39 -138 -52 -80 -110 20 -20 41 -21 82 -4
14 6 17 2 17 -23 0 -28 -4 -32 -37 -38 -80 -15 -153 36 -153 106 0 84 52 132
135 128 49 -3 50 -4 53 -36z m457 15 c20 -17 28 -35 32 -70 l6 -47 -77 0 c-74
0 -83 -3 -68 -26 18 -27 51 -35 87 -20 34 15 35 15 35 -9 0 -15 -9 -29 -21
-36 -30 -16 -115 -6 -139 16 -49 44 -45 154 7 194 36 29 103 28 138 -2z m141
12 c4 -8 9 -8 17 0 6 6 24 11 39 11 23 0 28 -4 28 -25 0 -19 -5 -25 -22 -25
-43 0 -58 -27 -58 -107 l0 -73 -30 0 -30 0 0 115 0 115 24 0 c14 0 28 -5 32
-11z"/>
<path d="M2160 2412 c-363 -523 -336 -480 -314 -503 11 -11 27 -17 35 -14 12
5 517 721 528 748 5 13 -28 37 -48 37 -9 -1 -96 -116 -201 -268z"/>
<path d="M2433 2573 c-23 -30 -444 -632 -488 -698 -13 -19 5 -49 31 -53 16 -2
74 75 277 367 141 203 257 375 257 382 0 11 -28 38 -42 39 -3 0 -19 -17 -35
-37z"/>
<path d="M1247 932 c-20 -22 -23 -92 -5 -110 16 -16 53 -15 67 1 51 62 -10
167 -62 109z"/>
<path d="M1512 944 c-36 -25 -28 -44 18 -44 44 0 52 16 24 44 -19 19 -15 19
-42 0z"/>
<path d="M2200 940 c-30 -30 -25 -40 19 -40 47 0 55 9 35 38 -19 27 -29 27
-54 2z"/>
<path d="M1188 419 c-24 -13 -23 -36 2 -49 15 -8 24 -6 40 10 11 11 20 27 20
35 0 17 -36 20 -62 4z"/>
<path d="M1912 513 c-7 -2 -17 -13 -22 -24 -10 -17 -7 -19 36 -19 46 0 46 0
32 22 -16 24 -27 29 -46 21z"/>
</g>
</svg>
